<svg xmlns="http://www.w3.org/2000/svg" width="520" height="520" fill="none">
  <g clip-path="url(#a)">
    <path fill="#212227" d="M260 0a260 260 0 1 0 0 520 260 260 0 0 0 0-520ZM138 316c9 11 20 16 36 16 8 0 15-1 22-4l23-12 27 38c-22 18-47 26-75 26-23 0-41-5-59-14a95 95 0 0 1-37-42c-9-18-14-38-14-63 0-24 5-45 14-63 8-18 21-33 38-44 16-10 35-15 57-15a108 108 0 0 1 76 27l-27 36c-6-5-14-9-21-12s-16-4-23-4c-32 0-48 25-48 75-1 25 3 43 11 55Zm260 58c-9 30-24 51-43 68-20 16-47 24-80 27l-7-44c22-3 38-8 49-16l11-11-78-251h65l45 188 48-188h64l-74 227Z"/>
  </g>
  <defs>
    <clipPath id="a">
      <path fill="#fff" d="M0 0h520v520H0z"/>
    </clipPath>
  </defs>
</svg>
