<svg xmlns="http://www.w3.org/2000/svg" width="520" height="520" fill="none">
  <g clip-path="url(#a)">
    <path fill="#F7DF1E" d="M0 0h520v520H0V0Z"/>
    <path fill="#000" d="m137 435 40-25c7 14 14 26 31 26 16 0 26-7 26-31V239h49v167c0 50-30 73-73 73-39 0-62-20-73-44m173-6 39-23c11 17 24 30 48 30 21 0 34-10 34-24 0-17-14-23-36-33l-12-5c-35-15-59-34-59-73 0-37 28-65 72-65 31 0 53 11 69 39l-38 24c-8-15-17-20-31-20-15 0-24 9-24 20 0 15 9 21 30 30l13 5c41 18 65 36 65 77 0 44-35 68-81 68s-75-21-89-50Z"/>
  </g>
  <defs>
    <clipPath id="a">
      <rect width="520" height="520" fill="#fff" rx="4"/>
    </clipPath>
  </defs>
</svg>
