<svg xmlns="http://www.w3.org/2000/svg" width="463" height="520" fill="none">
  <path fill="#539E43" d="M232 520c-8 0-14-2-21-5l-63-38c-10-5-5-7-2-8 13-4 15-5 28-13h5l49 30h6l191-111c2-1 3-3 3-5V150c0-3-1-5-3-5L234 35h-6L37 145c-2 0-3 3-3 5v220c0 2 1 4 3 5l52 30c28 15 46-2 46-19V169c0-3 3-6 6-6h24c3 0 6 3 6 6v217c0 38-21 60-56 60-11 0-20 0-45-12l-50-29c-12-7-20-20-20-35V150c0-14 8-27 20-35L211 5c12-7 29-7 41 0l191 110c12 8 20 21 20 35v220c0 15-8 28-20 35L252 516c-7 3-14 4-20 4Zm58-151c-83 0-101-39-101-71 0-3 3-6 6-6h25c3 0 5 2 5 5 4 25 15 38 66 38 40 0 57-9 57-31 0-12-4-21-67-28-52-5-85-16-85-58 0-39 33-62 87-62 62 0 92 21 96 67l-2 5-4 2h-25c-2 0-4-2-5-5-6-26-20-35-60-35-44 0-49 16-49 27 0 14 6 18 66 26 59 8 86 19 86 60 0 42-35 66-96 66Z"/>
</svg>
