<svg xmlns="http://www.w3.org/2000/svg" width="470" height="520" fill="none">
  <path fill="#99425B" d="M440 255a48 48 0 0 0-53-48l66-195H171l66 195a48 48 0 0 0-17 94 211 211 0 0 1-106 90 62 62 0 0 1-31-78l5-10a48 48 0 1 0-39-8c-12 27-29 56-35 89-6 39 0 81 34 105 80 55 166-34 257-57 33-8 70-6 99-23 21-13 36-34 40-58 4-23-2-46-15-65 7-8 11-19 11-31Z"/>
  <path fill="#fff" d="M432 349c-3 21-16 39-34 49-17 10-38 13-60 17l-36 6c-31 8-61 23-90 37-59 29-109 54-157 21-35-24-33-69-29-93 3-23 14-44 24-64l5-11c4 2 10 4 15 4-10 34 6 70 39 87l4 2 5-2a200 200 0 0 0 107-87 60 60 0 0 0 69-52h38a60 60 0 0 0 94 42c7 13 9 29 6 44ZM77 219a37 37 0 1 1 0 73 37 37 0 0 1 0-73Zm121 36a37 37 0 1 1 73 0 37 37 0 0 1-73 0Zm152-43c-8 7-13 17-16 28h-42c-3-12-9-22-18-29l38-77 38 78ZM188 24h248l-58 173-8 2-58-118-58 118-8-3-58-172Zm240 231a36 36 0 1 1-73 0 36 36 0 0 1 73 0Zm24 0c0-29-22-53-49-59L469 0H155l66 197a60 60 0 0 0-18 109 201 201 0 0 1-88 72 49 49 0 0 1-21-61l1-1 1-4a60 60 0 1 0-61-14l-7 13c-10 21-21 45-26 71-8 52 6 93 40 117 20 14 41 20 62 20 39 0 79-20 118-40 28-14 57-28 86-35l33-6c24-3 47-7 69-19a94 94 0 0 0 33-132c5-10 9-20 9-32Z"/>
</svg>
