<svg xmlns="http://www.w3.org/2000/svg" width="694" height="520" fill="none">
  <path fill="#2D4552" d="M229 294c-26 7-43 20-54 33 10-10 25-18 44-24 20-5 37-5 51-3v-10c-12-2-26-1-41 4Zm-56-92-96 25 5 6 82-21s-1 14-11 28c19-15 20-38 20-38Zm81 226C119 464 47 308 25 226a456 456 0 0 1-15-89c-7 0-11 4-10 14 1 19 6 47 16 85 21 81 93 238 228 202 30-8 52-23 69-41-16 14-35 24-59 31Zm25-322v9h54l-4-9h-50Z"/>
  <path fill="#2D4552" d="M344 185c24 7 37 24 44 39l26 7s-3-52-50-65c-44-13-71 24-75 29 13-9 32-16 55-10Zm212 39c-44-13-71 24-74 29 13-9 32-17 55-10 24 7 37 24 43 38l27 8s-4-52-51-65Zm-26 137-222-62s3 12 12 28l186 52c16-9 24-18 24-18ZM376 494c-175-47-154-271-125-377 11-43 23-76 33-97-6-2-11 2-16 11-10 22-24 57-37 106-28 106-49 329 126 376 83 22 147-11 195-64-45 41-104 64-176 45Z"/>
  <path fill="#E2574C" d="M279 376v-45l-125 35s9-54 75-72c20-6 36-6 50-3V106h63c-7-21-13-38-19-49-9-18-18-6-40 12a316 316 0 0 1-233 63c-27-5-42-11-40 10 1 18 5 47 15 84 22 82 94 238 229 202 35-10 60-28 78-52h-53ZM77 227l96-25s-2 37-38 46c-36 10-58-21-58-21Z"/>
  <path fill="#2EAD33" d="M642 108a397 397 0 0 1-303-81c-27-23-39-39-51-15-11 22-24 57-37 105-29 106-50 330 125 377 176 47 269-157 297-263 14-49 19-86 21-110 2-27-17-19-52-13Zm-353 88s28-43 75-30 50 65 50 65l-125-35Zm115 193c-83-25-96-90-96-90l222 62s-45 51-126 28Zm78-136s27-43 74-29c47 13 51 65 51 65l-125-36Z"/>
  <path fill="#D65348" d="m236 343-82 23s9-50 69-70l-46-174-4 2c-57 15-104 11-123 8-27-5-42-11-40 10 1 18 5 47 15 84 22 82 94 238 229 202l4-1-22-84ZM77 227l96-25s-2 37-38 46c-37 10-58-21-58-21Z"/>
  <path fill="#1D8D22" d="M407 389h-3c-83-25-96-90-96-90l115 32 60-233h-1c-74-20-123-55-143-71-27-23-39-39-51-15-11 22-24 57-37 105-29 106-50 330 125 377l4 1 27-106ZM289 196s28-43 75-30 50 65 50 65l-125-35Z"/>
  <path fill="#C04B41" d="m240 342-22 6c5 29 14 57 28 82l8-2 19-6c-16-24-27-51-33-80Zm-9-205c-11 42-21 102-18 163 5-3 10-5 16-6l4-1a550 550 0 0 1 27-207l-17 9-12 42Z"/>
</svg>
