<svg xmlns="http://www.w3.org/2000/svg" width="417" height="519" fill="none">
  <path fill="#FF4785" d="M16 478 0 50c0-14 11-26 25-27L389 0a26 26 0 0 1 28 26v467a26 26 0 0 1-27 26L41 503c-13 0-24-11-25-25Z"/>
  <mask id="a" width="417" height="519" x="0" y="0" maskUnits="userSpaceOnUse" style="mask-type:luminance">
    <path fill="#fff" d="M16 478 0 50c0-14 11-26 25-27L389 0a26 26 0 0 1 28 26v467a26 26 0 0 1-27 26L41 503c-13 0-24-11-25-25Z"/>
  </mask>
  <g mask="url(#a)">
    <path fill="#fff" d="m308 64 2-60 50-4 3 62a4 4 0 0 1-7 3l-19-15-23 17a4 4 0 0 1-6-3Zm-64 132c0 10 68 5 77-2 0-69-37-106-105-106-67 0-106 37-106 93 0 96 131 98 131 150 0 15-8 24-24 24-20 0-28-11-28-47 0-8-79-10-81 0-6 87 48 113 110 113 61 0 108-33 108-91 0-103-132-100-132-151 0-21 15-24 24-24 10 0 27 2 26 41Z"/>
  </g>
</svg>
