<svg xmlns="http://www.w3.org/2000/svg" width="584" height="520" fill="none">
  <g clip-path="url(#a)">
    <path fill="#00D8FF" d="m480 168-19-6 3-12c15-69 5-125-27-143-30-18-80 0-130 44l-15 13-9-8C230 9 177-11 145 7c-30 18-39 70-26 136l4 19-22 7C39 190 0 224 0 259c0 36 42 73 107 95l16 5-5 21c-12 64-3 115 28 132 31 18 84 0 135-45l12-11 16 14c49 43 99 60 129 43 31-18 41-73 28-140l-3-16 10-3c67-22 111-58 111-95 0-35-41-69-104-91Zm-14 162-10 3c-8-23-18-48-30-74 12-25 22-49 29-73l17 6c54 19 87 46 87 67 0 23-36 52-93 71Zm-24 48c6 29 6 56 2 77-3 19-10 31-19 36-18 11-57-3-100-40l-15-13c17-18 33-39 49-62 29-3 55-7 79-12l4 14ZM199 489c-18 7-32 7-41 2-18-11-26-52-15-107l4-19c24 5 50 9 78 11 17 23 34 44 51 62l-12 10c-22 20-45 34-65 41Zm-84-159c-29-10-52-22-68-36-15-12-22-25-22-35 0-21 32-48 85-67l20-6c7 24 17 49 28 74-12 25-21 51-29 75l-14-5Zm28-192c-11-56-4-98 15-109s62 5 108 45l9 8c-17 18-34 39-50 62-27 2-54 6-78 12l-4-18Zm252 62-18-29c19 2 37 5 53 9l-18 51-17-31ZM292 100c12 13 23 26 35 42a734 734 0 0 0-69 0l34-42ZM189 200l-17 31-18-51c17-4 34-7 53-9l-18 29Zm18 149-53-8 18-52a732 732 0 0 0 35 60Zm86 71c-12-13-24-27-35-42a873 873 0 0 0 69 0l-34 42Zm119-132c8 18 14 35 20 52-17 3-36 7-55 9a872 872 0 0 0 35-61Zm-39 19c-9 16-18 31-28 45a752 752 0 0 1-106 0 708 708 0 0 1-53-92 701 701 0 0 1 53-92 707 707 0 0 1 106 0 752 752 0 0 1 54 91c-8 16-16 32-26 48Zm52-279c20 11 27 57 15 117l-3 11c-24-5-50-10-78-12-16-23-33-44-49-62l13-12c43-38 84-52 102-42ZM292 207a52 52 0 1 1 0 104 52 52 0 0 1 0-104Z"/>
  </g>
  <defs>
    <clipPath id="a">
      <path fill="#fff" d="M0 0h584v520H0z"/>
    </clipPath>
  </defs>
</svg>
