<svg xmlns="http://www.w3.org/2000/svg" width="520" height="520" fill="none">
  <g clip-path="url(#a)">
    <path fill="#FFCEBF" d="m297 512 4-5c22-23 44-45 65-69a59 59 0 0 0 19-49l-2-11-17 15-26 24a36 36 0 0 1-40 8 37 37 0 0 1-24-33v-2l-20 16-129 109-2 3h172v-6Zm-180-1 5-5 179-151a4917 4917 0 0 0 40-35c3-13 3-26 1-39l-3 3-44 39a33 33 0 0 1-38 6 35 35 0 0 1-20-33v-6l-7 5L15 466c-3 3-7 9-11 3s2-8 5-11l229-183c13-10 14-14 6-29l-5 4-40 37a39 39 0 0 1-66-25l-7 5-113 87-7 5H1v159h116a7 7 0 0 1 0-7Z"/>
    <path fill="#FF6196" d="m430 7-9 31a31 31 0 0 0 17 38c22 12 47 17 71 15V9l1-6 2-2h-82v6Z"/>
    <path fill="#FF87AF" d="M268 185c0 10-4 19-9 26-21 26-44 50-70 70a27 27 0 0 1-31 4 26 26 0 0 1-15-25c0-7 3-13 7-18a666 666 0 0 1 101-77l8 2a19 19 0 0 1 9 18Zm-22 113a27 27 0 0 1 8-22c28-26 58-50 90-71l3-2a16 16 0 0 1 25 9l-1 10c-4 13-12 26-22 35-20 21-42 40-63 60a21 21 0 0 1-25 4 28 28 0 0 1-15-23Zm134 12-16 17-4 7c3 1 6 3 9 2l35-13-8 17a333 333 0 0 1-65 72 28 28 0 0 1-45-17 20 20 0 0 1 5-15 412 412 0 0 1 87-72l2 2Z"/>
    <path fill="#FF6196" d="m422 235 32-139 23 5-12 34-33 97c-2 6-5 7-10 3Zm-35 85 9-37c3-12 8-23 15-33 5-6 10-3 15-2s6 5 6 9c1 13-3 26-10 36-10 12-22 21-35 27Z"/>
    <path fill="#000" d="M519 16V4l-2-3-3-1c-1-1-1 0-2 1l-2 3v88c-25 2-50-3-71-15a31 31 0 0 1-17-39 862 862 0 0 1 9-37l-3-1-3 1-3 3a458 458 0 0 0-11 48 43 43 0 0 0 29 37c3 1 5 3 4 8l-4 17a47968 47968 0 0 0-29 125c-6 4-11 10-15 17-5 8-8 18-10 28a18 18 0 0 1-10 14l-23 14-1-31a20 20 0 0 1 6-17c11-12 19-26 23-41a24 24 0 0 0-22-32c-7 0-13 2-18 5l-52 38-30 24-1-2-1-4c-8-12-2-21 7-31s14-23 14-36c0-7-2-14-6-19l-8-7a25 25 0 0 0-28 3l-6 4-35 26-48 41c-8 6-13 15-21 21L5 348l-4 3v1c-1 2-2 5-1 6l1 1h5l7-4 113-88 7-5a39 39 0 0 0 67 25l39-37 5-5c8 16 7 20-5 30L10 459c-4 3-10 5-6 10 4 6 8 0 12-2l214-172 7-5v6a35 35 0 0 0 20 34 33 33 0 0 0 38-7l44-39 4-3c2 13 1 26-2 39l-3 4-36 31-179 152-6 5a7 7 0 0 0 0 6 7 7 0 0 0 6 1l2-1 3-2 129-110 19-16 1 3a37 37 0 0 0 24 32 36 36 0 0 0 40-7l25-24 17-16 3 12a59 59 0 0 1-19 49l-65 68c-2 2-4 3-4 5-1 2-2 5-1 6l7 1 1-1 2-2 53-54 20-23a63 63 0 0 0 11-67c-1-3 0-5 1-8l4-6c5-5 8-12 11-18 6-16 14-32 25-45a52 52 0 0 0 9-46v-9l29-87 13-39 4-12h24c7 0 9-3 9-9l-1-77ZM190 282a27 27 0 0 1-31 4 26 26 0 0 1-16-26c1-6 3-13 8-17a666 666 0 0 1 99-77h4l5 2a19 19 0 0 1 9 18c0 9-3 18-9 25-20 26-43 50-69 71Zm96 36a21 21 0 0 1-25 3 28 28 0 0 1-15-23 27 27 0 0 1 8-22c29-26 59-50 91-71l3-2a16 16 0 0 1 24 10c1 3 1 6-1 9-4 14-11 26-21 36l-63 60h-1Zm110 23a333 333 0 0 1-64 71 28 28 0 0 1-45-17 20 20 0 0 1 4-15 412 412 0 0 1 87-71l2 2-15 16-4 7c3 1 6 3 8 2l27-10 8-3-8 18Zm26-47c-7 8-16 16-26 21l-9 5 9-36v-1c3-12 8-22 16-32 4-6 9-3 14-2s6 5 7 9c0 13-3 25-11 36Zm43-158-32 97c-2 6-5 7-10 4l27-123 4-18 23 5-5 13-7 22Z"/>
  </g>
  <defs>
    <clipPath id="a">
      <path fill="#fff" d="M0 0h520v520H0z"/>
    </clipPath>
  </defs>
</svg>
