<svg width="520" height="520" fill="none" xmlns="http://www.w3.org/2000/svg">
  <g clip-path="url(#a)">
    <path d="M0 260v260h520V0H0v260Z" fill="#007ACC"/>
    <path d="M115 262v21h68v192h47V283h68v-21l-1-21-91-1-91 1v21Zm305-22c13 3 23 9 32 19l13 16-37 25-4-5c-7-10-14-14-25-15-15-1-26 7-26 21 0 4 1 6 3 10 3 7 10 11 30 20 37 16 53 26 63 41 11 17 13 44 6 64-8 21-29 36-58 41-9 2-30 1-39 0-21-4-41-14-53-28-5-5-14-19-14-20l5-3 19-11 15-9 3 5c5 6 14 16 20 19 17 8 40 7 51-3 5-4 7-9 7-16 0-6-1-8-4-13-4-6-13-10-36-21-27-11-38-18-49-30-6-6-12-17-14-26-2-7-3-25-1-33 5-26 25-44 53-49 9-2 31-1 40 1Z" fill="#fff"/>
  </g>
  <defs>
    <clipPath id="a">
      <rect width="520" height="520" rx="4" fill="#fff"/>
    </clipPath>
  </defs>
</svg>
